<svg xmlns="http://www.w3.org/2000/svg" width="48.014" height="45" viewBox="0 0 48.014 45">
  <g id="cart" transform="translate(0.003 -0.379)">
    <path id="Path_9" data-name="Path 9" d="M101.672,322.332a5.718,5.718,0,1,0,5.718,5.719A5.718,5.718,0,0,0,101.672,322.332Zm0,9.335a3.616,3.616,0,1,1,3.616-3.616A3.616,3.616,0,0,1,101.672,331.667Zm0,0" transform="translate(-85.87 -288.39)" fill="#fff"/>
    <path id="Path_10" data-name="Path 10" d="M46.97,10.136H9.852L9.1,5.937A6.29,6.29,0,0,0,3.976.874L1.233.395A1.043,1.043,0,1,0,.865,2.447l2.754.479A4.186,4.186,0,0,1,7.025,6.3l3.721,20.8a5.232,5.232,0,0,0,5.172,4.3H37.992a5.237,5.237,0,0,0,5.035-3.7l4.941-16.231a1.081,1.081,0,0,0-.158-.927A1.068,1.068,0,0,0,46.97,10.136ZM41.02,27.1A3.128,3.128,0,0,1,38,29.314H15.928a3.13,3.13,0,0,1-3.1-2.584l-2.6-14.522h35.33Zm0,0" transform="translate(0)" fill="#fff"/>
    <path id="Path_11" data-name="Path 11" d="M311.672,322.332a5.718,5.718,0,1,0,5.718,5.719A5.718,5.718,0,0,0,311.672,322.332Zm0,9.335a3.616,3.616,0,1,1,3.616-3.616A3.616,3.616,0,0,1,311.672,331.667Zm0,0" transform="translate(-273.795 -288.39)" fill="#fff"/>
  </g>
</svg>
