<svg id="user" xmlns="http://www.w3.org/2000/svg" width="144.387" height="144.387" viewBox="0 0 144.387 144.387">
  <g id="user-2" data-name="user" transform="translate(72.193 0) rotate(45)">
    <g id="Group_68" data-name="Group 68" transform="translate(0)">
      <path id="Path_21" data-name="Path 21" d="M87.145,66a50.852,50.852,0,0,0-19.4-12.167,29.512,29.512,0,1,0-33.4,0A51.129,51.129,0,0,0,0,102.1H7.976a43.072,43.072,0,1,1,86.144,0H102.1A50.716,50.716,0,0,0,87.145,66Zm-36.1-14.952A21.536,21.536,0,1,1,72.584,29.512,21.56,21.56,0,0,1,51.048,51.048Z" transform="translate(0)" fill="#fff"/>
    </g>
  </g>
</svg>
