<svg xmlns="http://www.w3.org/2000/svg" width="64" height="64" viewBox="0 0 64 64">
  <path id="facebook" d="M9.375,64H30.25V41.25h-7.5v-7.5h7.5V24.375A9.386,9.386,0,0,1,39.625,15H49v7.5H41.5a3.754,3.754,0,0,0-3.75,3.75v7.5H48.662l-1.25,7.5H37.75V64H54.625A9.386,9.386,0,0,0,64,54.625V9.375A9.386,9.386,0,0,0,54.625,0H9.375A9.386,9.386,0,0,0,0,9.375v45.25A9.386,9.386,0,0,0,9.375,64ZM3.75,9.375A5.631,5.631,0,0,1,9.375,3.75h45.25A5.631,5.631,0,0,1,60.25,9.375v45.25a5.631,5.631,0,0,1-5.625,5.625H41.5V45h9.088l2.5-15H41.5V26.25H52.75v-15H39.625A13.14,13.14,0,0,0,26.5,24.375V30H19V45h7.5V60.25H9.375A5.631,5.631,0,0,1,3.75,54.625Zm0,0" fill="#fff"/>
</svg>
