<svg xmlns="http://www.w3.org/2000/svg" width="36.118" height="39.402" viewBox="0 0 36.118 39.402">
  <g id="feather" transform="translate(-21.334)">
    <g id="Group_125" data-name="Group 125" transform="translate(21.334)">
      <path id="Path_69" data-name="Path 69" d="M56.632,0a32.046,32.046,0,0,0-31.87,29.154,100.359,100.359,0,0,1,10.41-12A.821.821,0,1,1,36.344,18.3c-.639.65-1.287,1.325-1.939,2.008-.373.389-.737.777-1.1,1.157-.066.071-.131.141-.2.213-5.24,5.611-8.987,10.5-11.707,16.562a.822.822,0,0,0,1.5.673,45.057,45.057,0,0,1,3.357-6.111A31.99,31.99,0,0,0,53.635,15.986a.82.82,0,0,0-.724-1.21h-3.04l5.452-3.116a.822.822,0,0,0,.369-.445A31.9,31.9,0,0,0,57.452.821.821.821,0,0,0,56.632,0Z" transform="translate(-21.334 0)" fill="#fff"/>
    </g>
  </g>
</svg>
