<svg xmlns="http://www.w3.org/2000/svg" width="64" height="64" viewBox="0 0 64 64">
  <g id="instagram" transform="translate(-8 -8)">
    <path id="Path_64" data-name="Path 64" d="M53.333,8H26.667A18.687,18.687,0,0,0,8,26.667V53.333A18.687,18.687,0,0,0,26.667,72H53.333A18.687,18.687,0,0,0,72,53.333V26.667A18.687,18.687,0,0,0,53.333,8ZM66.667,53.333A13.348,13.348,0,0,1,53.333,66.667H26.667A13.348,13.348,0,0,1,13.333,53.333V26.667A13.348,13.348,0,0,1,26.667,13.333H53.333A13.348,13.348,0,0,1,66.667,26.667Z" fill="#fff"/>
    <path id="Path_65" data-name="Path 65" d="M32,21A11,11,0,1,0,43,32,11.013,11.013,0,0,0,32,21Zm0,18a7,7,0,1,1,7-7A7.008,7.008,0,0,1,32,39Z" transform="translate(8 8)" fill="#fff"/>
    <path id="Path_66" data-name="Path 66" d="M45,16a3,3,0,1,0,3,3A3,3,0,0,0,45,16Z" transform="translate(12.952 3.048)" fill="#fff"/>
  </g>
</svg>
