<svg xmlns="http://www.w3.org/2000/svg" width="128" height="128" viewBox="0 0 128 128">
  <g id="automotive" transform="translate(-3 -3)">
    <path id="Path_48" data-name="Path 48" d="M50.207,17A33.207,33.207,0,1,0,83.414,50.207,33.245,33.245,0,0,0,50.207,17ZM25.855,52.421H21.428V47.993h4.428ZM47.993,21.428h4.428v4.428H47.993Zm4.428,57.559H47.993V74.559h4.428Zm-2.214-8.855A19.924,19.924,0,1,1,70.131,50.207,19.946,19.946,0,0,1,50.207,70.131ZM74.559,47.993h4.428v4.428H74.559Z" transform="translate(16.793 16.793)" fill="#5a5a5a"/>
    <path id="Path_49" data-name="Path 49" d="M62.919,37.561l7.155-26.83A63.578,63.578,0,0,0,25.615,4.577L40.926,29.458A37.171,37.171,0,0,1,62.919,37.561Z" transform="translate(27.383 0)" fill="#5a5a5a"/>
    <path id="Path_50" data-name="Path 50" d="M54.516,57.472,78.361,42.8a64.045,64.045,0,0,0-26.7-35.218L44.24,35.4A37.266,37.266,0,0,1,54.516,57.472Z" transform="translate(49.896 5.495)" fill="#5a5a5a"/>
    <circle id="Ellipse_13" data-name="Ellipse 13" cx="6.5" cy="6.5" r="6.5" transform="translate(60.213 60.213)" fill="#5a5a5a"/>
    <path id="Path_51" data-name="Path 51" d="M40.4,25a15.4,15.4,0,1,0,15.4,15.4A15.416,15.416,0,0,0,40.4,25Zm0,26.394a11,11,0,1,1,11-11A11.01,11.01,0,0,1,40.4,51.394Z" transform="translate(26.603 26.603)" fill="#5a5a5a"/>
    <path id="Path_52" data-name="Path 52" d="M28.092,33.736,4.247,48.409a64.045,64.045,0,0,0,26.7,35.218L38.368,55.8A37.266,37.266,0,0,1,28.092,33.736Z" transform="translate(1.496 37.297)" fill="#5a5a5a"/>
    <path id="Path_53" data-name="Path 53" d="M57.472,28.092,42.8,4.247a64.045,64.045,0,0,0-35.218,26.7L35.4,38.368A37.266,37.266,0,0,1,57.472,28.092Z" transform="translate(5.495 1.496)" fill="#5a5a5a"/>
    <path id="Path_54" data-name="Path 54" d="M25.327,45.287l-7.155,26.83a63.38,63.38,0,0,0,30.415,7.731,63.709,63.709,0,0,0,14.044-1.577L47.32,53.39a37.171,37.171,0,0,1-21.993-8.1Z" transform="translate(18.371 51.152)" fill="#5a5a5a"/>
    <path id="Path_55" data-name="Path 55" d="M33.736,54.516,48.409,78.361a64.045,64.045,0,0,0,35.218-26.7L55.8,44.24A37.266,37.266,0,0,1,33.736,54.516Z" transform="translate(37.297 49.896)" fill="#5a5a5a"/>
    <path id="Path_56" data-name="Path 56" d="M78.271,25.615,53.39,40.926a37.17,37.17,0,0,1-8.1,21.991l26.83,7.155a63.365,63.365,0,0,0,7.731-30.413A63.709,63.709,0,0,0,78.271,25.615Z" transform="translate(51.152 27.383)" fill="#5a5a5a"/>
    <path id="Path_57" data-name="Path 57" d="M37.561,25.327l-26.83-7.155A63.578,63.578,0,0,0,4.577,62.631L29.458,47.32a37.171,37.171,0,0,1,8.1-21.993Z" transform="translate(0 18.371)" fill="#5a5a5a"/>
  </g>
</svg>
