<svg xmlns="http://www.w3.org/2000/svg" width="154.5" height="138.041" viewBox="0 0 154.5 138.041">
  <g id="map" transform="translate(0 -27.272)">
    <g id="Group_127" data-name="Group 127" transform="translate(0 27.272)">
      <g id="Group_126" data-name="Group 126" transform="translate(0 0)">
        <path id="Path_74" data-name="Path 74" d="M154.467,162.641l-9.052-49.91a2.268,2.268,0,1,0-4.462.809l3.827,21.1-29.506-34.274,19.845-4.429,2.939,1.636,1.276,7.036a2.268,2.268,0,0,0,4.463-.809l-1.468-8.091a2.267,2.267,0,0,0-1.128-1.577l-4.63-2.577h0l-14.632-8.145h0l-11.289-6.284h0l0,0a2.25,2.25,0,0,0-.268-.126c-.029-.011-.058-.019-.087-.029-.064-.022-.128-.044-.193-.06-.037-.009-.074-.015-.111-.022-.058-.011-.117-.023-.176-.03-.04,0-.079-.006-.119-.009-.057,0-.114-.007-.171-.006-.041,0-.081,0-.122.006-.056,0-.112.009-.168.017-.041.006-.081.013-.122.021s-.109.024-.164.038-.081.023-.121.037-.1.038-.156.06-.079.033-.119.053c-.017.008-.035.014-.052.023l-5.181,2.7c3.854-7.186,5.8-14.146,5.8-20.805a31.721,31.721,0,1,0-63.442,0c0,6.723,1.983,13.754,5.913,21.014L46.006,77.1c-.017-.009-.036-.015-.053-.024-.038-.019-.077-.035-.116-.051s-.105-.043-.158-.061-.08-.025-.12-.036-.109-.028-.164-.039-.082-.015-.123-.021-.111-.013-.166-.016-.083-.005-.125-.006-.111,0-.166.006-.083,0-.125.009-.112.018-.168.029c-.04.008-.079.014-.119.024-.062.016-.123.037-.183.057-.032.011-.064.019-.1.032a2.284,2.284,0,0,0-.267.126l0,0h0L13.3,94.134a2.265,2.265,0,0,0-1.128,1.577L3.57,143.158a2.268,2.268,0,0,0,4.463.809l2.582-14.234,29.349-15.515L37.6,144.694,5.268,159.213l1.138-6.277a2.268,2.268,0,1,0-4.462-.809L.037,162.641a2.267,2.267,0,0,0,3.16,2.473L39.76,148.7l36.548,16.41h0l.012.005c.021.009.042.016.063.024l.1.039c.033.012.066.024.1.034l.065.018.085.022c.047.011.095.019.142.027.023,0,.045.009.068.012l.046.006a2.227,2.227,0,0,0,.228.014l.029,0h.014a2.261,2.261,0,0,0,.274-.02l.034,0c.017,0,.034-.008.052-.011a2.16,2.16,0,0,0,.212-.046l.058-.014H77.9l.018-.007a2.25,2.25,0,0,0,.26-.1L114.743,148.7l36.563,16.417c.035.016.072.027.108.041s.071.029.107.041.1.027.144.04c.03.008.059.018.089.024.058.013.117.021.176.029l.063.01a2.239,2.239,0,0,0,.242.013h0a2.292,2.292,0,0,0,.33-.027l.076-.012a2.215,2.215,0,0,0,.322-.081l.02-.008a2.109,2.109,0,0,0,.208-.084c.02-.009.037-.023.057-.033.057-.029.112-.062.167-.1s.11-.067.161-.106c.018-.013.038-.023.056-.036.04-.031.075-.067.112-.1s.061-.052.09-.08a2.166,2.166,0,0,0,.19-.215c.011-.014.024-.027.035-.041a2.267,2.267,0,0,0,.18-.288c.015-.028.026-.058.04-.087a2.324,2.324,0,0,0,.094-.225c.014-.039.024-.078.036-.118q.031-.106.051-.215c.008-.042.015-.084.021-.126a2.3,2.3,0,0,0,.017-.233c0-.037,0-.074,0-.112A2.105,2.105,0,0,0,154.467,162.641Zm-39.86-78.119-2.325.544-.149-1.921Zm-4.947,25.416-9.47-7.395a2.269,2.269,0,0,0-2.3-.292l-18.36,7.991v-2.485a106.516,106.516,0,0,0,8.224-7.532l20.458-8.988Zm-2.109-27.231.29,3.739L95.06,92.061q1.9-2.36,3.55-4.694Zm-60.6,0,9.4,4.9q2.088,2.936,4.579,5.914c1.453,1.735,2.9,3.347,4.294,4.823l-19.27-2.757Zm-6.575,26.162L11.643,124.058l1.4-7.717.036-.2,27.873-14.69Zm.989-12.761L14.107,110.474l2.339-12.9L42.37,83.145l-.651,8.413Zm.778,48.688,2.147-27.722,26.787,40.714Zm32.84-8.74L61.015,114.04l13.969,1.673Zm0-24.911-18.175-2.176a2.268,2.268,0,0,0-2.184,3.467l20.359,32.085v10.952L44.863,109.692l.742-9.574,25.02,3.58c1.887,1.751,3.417,3.051,4.36,3.828v3.619Zm2.413-7.519c-5.726-4.83-27.186-24.29-27.186-44.632a27.186,27.186,0,1,1,54.373,0C104.584,79.336,83.124,98.8,77.4,103.626Zm2.122,55.915V149.476L86.3,156.5ZM90.7,154.523,79.519,142.946V115.192l18.942-8.244,11.672,9.114,2.225,28.735Zm21.94-64.883L120.5,87.8l5.576,3.1,3.085,1.718L113.144,96.2Zm4.264,55.054-1.77-22.858,29.132,35.144ZM114.523,114l-.616-7.957-.026-.337,32.5,37.747,2.084,11.489Z" transform="translate(0 -27.272)" fill="#fff"/>
      </g>
    </g>
    <g id="Group_129" data-name="Group 129" transform="translate(63.382 44.979)">
      <g id="Group_128" data-name="Group 128">
        <path id="Path_75" data-name="Path 75" d="M224.057,85.95a2.268,2.268,0,1,0,0,4.535,9.48,9.48,0,1,1-6.762,2.836,2.268,2.268,0,0,0-3.235-3.178,14.015,14.015,0,1,0,10-4.193Z" transform="translate(-210.042 -85.95)" fill="#fff"/>
      </g>
    </g>
  </g>
</svg>
