<svg xmlns="http://www.w3.org/2000/svg" width="593.97" height="777.248" viewBox="0 0 593.97 777.248">
  <g id="Component_27_1" data-name="Component 27 – 1" transform="translate(3.536)">
    <g id="Component_11_1" data-name="Component 11 – 1" transform="translate(0 116.562) rotate(45)">
      <line id="Line_31" data-name="Line 31" x1="830" fill="none" stroke="#fff" stroke-width="10" stroke-dasharray="15"/>
    </g>
    <g id="car" transform="matrix(0.643, 0.766, -0.766, 0.643, 300.6, 165.097)">
      <g id="Group_70" data-name="Group 70">
        <g id="Group_69" data-name="Group 69">
          <path id="Path_22" data-name="Path 22" d="M85.351,14.642a50,50,0,1,0-70.7,70.713,49.992,49.992,0,0,0,67.585,2.866,1.465,1.465,0,0,0-1.89-2.239,47.091,47.091,0,1,1,4.745-4.611,1.465,1.465,0,0,0,2.184,1.954,49.994,49.994,0,0,0-1.921-68.682Z" fill="#fff"/>
        </g>
      </g>
      <g id="Group_72" data-name="Group 72" transform="translate(9.332 9.318)">
        <g id="Group_71" data-name="Group 71">
          <path id="Path_23" data-name="Path 23" d="M75.671,34.951a40.678,40.678,0,1,0,40.669,40.678A40.719,40.719,0,0,0,75.671,34.951ZM37.763,75.629A37.959,37.959,0,0,1,73.942,37.753l-7.167,32.33L41.8,92.635A37.692,37.692,0,0,1,37.763,75.629ZM74.29,48.939V72.923L53.606,85.691,68.952,71.836a1.381,1.381,0,0,0,.36-.521,1.364,1.364,0,0,0,.062-.2Zm1.381,64.607A37.914,37.914,0,0,1,43.432,95.552L64.4,87.612a1.38,1.38,0,0,0-.978-2.582L54.393,88.45,75.671,75.314,96.953,88.452,76.159,80.578a1.383,1.383,0,0,0-.978,0l-6.2,2.346a1.38,1.38,0,0,0,.978,2.582l5.707-2.161,32.24,12.209A37.916,37.916,0,0,1,75.671,113.546Zm8.9-43.464L83.106,63.49a1.38,1.38,0,1,0-2.695.6l1.544,6.968a1.372,1.372,0,0,0,.432.781l15.34,13.85L77.053,72.923V48.951l.414,1.866c0,.017.01.034.014.051l1.681,7.582a1.38,1.38,0,1,0,2.695-.6L77.4,37.753a37.907,37.907,0,0,1,32.146,54.882Z" transform="translate(-35.003 -34.951)" fill="#fff"/>
        </g>
      </g>
    </g>
    <g id="Component_11_2" data-name="Component 11 – 2" transform="translate(0 703.461) rotate(-45)">
      <line id="Line_31-2" data-name="Line 31" x1="830" fill="none" stroke="#fff" stroke-width="10" stroke-dasharray="15"/>
    </g>
    <g id="volkswagen" transform="matrix(0.839, -0.545, 0.545, 0.839, 26.772, 388.298)">
      <g id="Group_74" data-name="Group 74" transform="translate(38.806 13.492)">
        <g id="Group_73" data-name="Group 73">
          <path id="Path_24" data-name="Path 24" d="M221.015,71.263a1.881,1.881,0,0,0-1.2-1.016,36.877,36.877,0,0,0-19.615,0,1.887,1.887,0,0,0-1.214,2.6h0l9.307,20.6a1.887,1.887,0,0,0,3.439,0l9.3-20.606A1.887,1.887,0,0,0,221.015,71.263Zm-19.355.373Zm8.35,18.484-7.837-17.349a33.992,33.992,0,0,1,15.664,0Z" transform="translate(-198.817 -68.92)" fill="#fff"/>
        </g>
      </g>
      <g id="Group_76" data-name="Group 76" transform="translate(20.226 19.091)">
        <g id="Group_75" data-name="Group 75">
          <path id="Path_25" data-name="Path 25" d="M163.105,107.081a36.687,36.687,0,0,0-9.347-8.827,1.888,1.888,0,0,0-2.744.777l-12.3,26.2H128.684l-12.344-26.2a1.888,1.888,0,0,0-2.742-.774,36.681,36.681,0,0,0-9.32,8.792,1.889,1.889,0,0,0-.206,1.9l15.737,34.908a1.886,1.886,0,0,0,3.383.115l5.44-10.161h10.094l5.44,10.162a1.875,1.875,0,0,0,1.662,1h.066a1.875,1.875,0,0,0,1.656-1.109l9.336-20.661a1.468,1.468,0,0,0-2.676-1.209l-8.459,18.72-4.732-8.839a1.883,1.883,0,0,0-1.663-1H128a1.884,1.884,0,0,0-1.663,1l-4.73,8.836L107,108.31a33.718,33.718,0,0,1,7.2-6.917l12.1,25.687a1.894,1.894,0,0,0,1.707,1.083h11.362a1.9,1.9,0,0,0,1.708-1.085l12.062-25.685a33.741,33.741,0,0,1,7.228,6.949l-3.569,7.9a1.468,1.468,0,0,0,2.676,1.209l3.825-8.465A1.891,1.891,0,0,0,163.105,107.081Z" transform="translate(-103.904 -97.945)" fill="#fff"/>
        </g>
      </g>
      <g id="Group_78" data-name="Group 78" transform="translate(13.491 40.244)">
        <g id="Group_77" data-name="Group 77">
          <path id="Path_26" data-name="Path 26" d="M90.691,245.861,73.411,207.5a1.887,1.887,0,0,0-3.558.349A36.682,36.682,0,0,0,88.071,248.3a1.887,1.887,0,0,0,2.62-2.435ZM71.856,216.1a34.047,34.047,0,0,1,.272-4.3l14.495,32.177A33.688,33.688,0,0,1,71.856,216.1Z" transform="translate(-68.919 -206.39)" fill="#fff"/>
        </g>
      </g>
      <g id="Group_80" data-name="Group 80" transform="translate(38.807 60.641)">
        <g id="Group_79" data-name="Group 79">
          <path id="Path_27" data-name="Path 27" d="M221.067,333.377,211.353,311.8a1.467,1.467,0,0,0-1.338-.865h0a1.468,1.468,0,0,0-1.338.865l-9.725,21.569a1.468,1.468,0,0,0,.933,2.015,36.86,36.86,0,0,0,20.25,0,1.469,1.469,0,0,0,.934-2.014Zm-11.052.494a33.831,33.831,0,0,1-7.672-.877l7.671-17.012L217.676,333A33.839,33.839,0,0,1,210.014,333.87Z" transform="translate(-198.821 -310.939)" fill="#fff"/>
        </g>
      </g>
      <g id="Group_82" data-name="Group 82" transform="translate(64.571 40.323)">
        <g id="Group_81" data-name="Group 81">
          <path id="Path_28" data-name="Path 28" d="M352.041,208.258a1.887,1.887,0,0,0-3.559-.355l-17.3,38.279a1.887,1.887,0,0,0,2.619,2.436,36.685,36.685,0,0,0,18.236-40.361ZM335.26,244.3l14.5-32.085a34.083,34.083,0,0,1,.261,4.213A33.684,33.684,0,0,1,335.26,244.3Z" transform="translate(-331.018 -206.793)" fill="#fff"/>
        </g>
      </g>
      <g id="Group_84" data-name="Group 84">
        <g id="Group_83" data-name="Group 83">
          <path id="Path_29" data-name="Path 29" d="M85.351,14.642A50,50,0,0,0,16.637,12.76a1.465,1.465,0,1,0,1.955,2.182A47.047,47.047,0,1,1,13.808,19.9a1.465,1.465,0,0,0-2.252-1.875,50,50,0,1,0,73.8-3.387Z" fill="#fff"/>
        </g>
      </g>
      <g id="Group_86" data-name="Group 86" transform="translate(6.852 6.842)">
        <g id="Group_85" data-name="Group 85">
          <path id="Path_30" data-name="Path 30" d="M78.15,34.95a43.158,43.158,0,0,0-19.392,81.7,1.464,1.464,0,0,0,1.32-2.614,40.21,40.21,0,1,1,18.071,4.294,40.044,40.044,0,0,1-12.681-2.048,1.464,1.464,0,0,0-.926,2.778A43.155,43.155,0,1,0,78.15,34.95Z" transform="translate(-35.003 -34.95)" fill="#fff"/>
        </g>
      </g>
    </g>
    <g id="bmw" transform="translate(471.264 342.449) rotate(28)">
      <g id="Group_88" data-name="Group 88" transform="translate(44.596 4.778)">
        <g id="Group_87" data-name="Group 87">
          <path id="Path_31" data-name="Path 31" d="M235.959,24.24a3.412,3.412,0,0,0-1.969.625,3.431,3.431,0,0,0-5.4,2.811V34.3a1.478,1.478,0,1,0,2.957,0V27.675a.478.478,0,0,1,.957,0V34.3a1.479,1.479,0,0,0,1.478,1.478H234a1.479,1.479,0,0,0,1.478-1.478V27.675a.478.478,0,0,1,.957,0V34.3a1.478,1.478,0,0,0,2.957,0V27.675A3.439,3.439,0,0,0,235.959,24.24Z" transform="translate(-228.586 -24.24)" fill="#fff"/>
        </g>
      </g>
      <g id="Group_90" data-name="Group 90" transform="translate(24.032 9.463)">
        <g id="Group_89" data-name="Group 89">
          <path id="Path_32" data-name="Path 32" d="M134.637,53.469a3.554,3.554,0,0,0-1.643-1.488,3.577,3.577,0,0,0-5.334-3.5L123.942,50.6a1.478,1.478,0,0,0-.551,2.017l2.087,3.657,2.087,3.657a1.478,1.478,0,0,0,2.017.551l3.718-2.122A3.588,3.588,0,0,0,134.637,53.469Zm-7.323.053-.621-1.089,2.434-1.389a.627.627,0,0,1,.621,1.089Zm4.522,2.268L129.4,57.179l-.622-1.089,1.321-.754,1.113-.635a.627.627,0,0,1,.621,1.089Z" transform="translate(-123.196 -48.006)" fill="#fff"/>
        </g>
      </g>
      <g id="Group_92" data-name="Group 92" transform="translate(62.729 8.147)">
        <g id="Group_91" data-name="Group 91">
          <path id="Path_33" data-name="Path 33" d="M334.2,45.415a1.478,1.478,0,0,0-2.017.552L328.9,51.723a.478.478,0,1,1-.831-.474l3.283-5.756a1.478,1.478,0,0,0-.552-2.017l-.009,0-.011-.007a1.478,1.478,0,0,0-2.017.552l-3.284,5.756a.478.478,0,1,1-.831-.474l3.284-5.756a1.478,1.478,0,0,0-2.568-1.465l-3.284,5.756a3.434,3.434,0,0,0,2.978,5.137c.108,0,.215-.007.322-.017a3.434,3.434,0,0,0,3.1,1.97,3.452,3.452,0,0,0,.912-.123,3.412,3.412,0,0,0,2.078-1.611l3.284-5.756A1.478,1.478,0,0,0,334.2,45.415Z" transform="translate(-321.627 -41.331)" fill="#fff"/>
        </g>
      </g>
      <g id="Group_94" data-name="Group 94">
        <g id="Group_93" data-name="Group 93">
          <path id="Path_34" data-name="Path 34" d="M85.355,14.645a50,50,0,0,0-68.271-2.283,1.465,1.465,0,0,0,1.929,2.2,47.062,47.062,0,1,1-5.063,5.165,1.465,1.465,0,0,0-2.243-1.885,50,50,0,1,0,73.647-3.2Z" fill="#fff"/>
        </g>
      </g>
      <g id="Group_96" data-name="Group 96" transform="translate(17.375 17.375)">
        <g id="Group_95" data-name="Group 95">
          <path id="Path_35" data-name="Path 35" d="M123.125,90.5a32.625,32.625,0,1,0,32.625,32.625A32.662,32.662,0,0,0,123.125,90.5Zm-1.478,2.994v28.153H93.494A29.709,29.709,0,0,1,121.646,93.494Zm2.957,59.262v-4.431a1.478,1.478,0,0,0-2.957,0v4.431A29.709,29.709,0,0,1,93.494,124.6h28.153v17.38a1.478,1.478,0,0,0,2.957,0V124.6h4.83a1.478,1.478,0,1,0,0-2.957H124.6V93.494a29.709,29.709,0,0,1,28.153,28.153H135.84a1.478,1.478,0,0,0,0,2.957h16.916A29.709,29.709,0,0,1,124.6,152.756Z" transform="translate(-90.5 -90.5)" fill="#fff"/>
        </g>
      </g>
    </g>
    <g id="audi" transform="translate(212.938 392)">
      <g id="Group_98" data-name="Group 98" transform="translate(0 161)">
        <g id="Group_97" data-name="Group 97">
          <path id="Path_36" data-name="Path 36" d="M142.179,162.98a30.12,30.12,0,0,0-27.655,3.218,30.079,30.079,0,0,0-33.8,0,30.08,30.08,0,0,0-33.8,0,29.955,29.955,0,1,0,0,49.515,30.079,30.079,0,0,0,33.8,0,29.674,29.674,0,0,0,10.36,4.483,2.365,2.365,0,0,0,1.025-4.617,25.037,25.037,0,0,1-9.94-4.66,2.366,2.366,0,0,0-2.89,0,25.333,25.333,0,0,1-30.914,0,2.365,2.365,0,0,0-2.89,0,25.225,25.225,0,1,1,0-39.927,2.366,2.366,0,0,0,2.89,0,25.333,25.333,0,0,1,30.914,0,2.366,2.366,0,0,0,2.89,0,25.333,25.333,0,0,1,30.914,0,2.366,2.366,0,0,0,2.89,0,25.376,25.376,0,0,1,24.517-3.595,2.365,2.365,0,1,0,1.692-4.417Z" transform="translate(0 -161)" fill="#fff"/>
        </g>
      </g>
      <g id="Group_100" data-name="Group 100" transform="translate(117.621 168.739)">
        <g id="Group_99" data-name="Group 99" transform="translate(0 0)">
          <path id="Path_37" data-name="Path 37" d="M386.832,185.544a22.125,22.125,0,0,0-12.8,4.057,2.365,2.365,0,0,0-.549,3.328,25.176,25.176,0,0,1,0,29.663,2.364,2.364,0,0,0,.549,3.328,22.227,22.227,0,1,0,12.8-40.375Zm0,39.7a17.4,17.4,0,0,1-8.112-1.992,29.928,29.928,0,0,0,0-30.989,17.5,17.5,0,1,1,8.112,32.981Z" transform="translate(-373.027 -185.544)" fill="#fff"/>
        </g>
      </g>
      <g id="Group_102" data-name="Group 102" transform="translate(109.168 178.136)">
        <g id="Group_101" data-name="Group 101">
          <path id="Path_38" data-name="Path 38" d="M353.58,216.458a2.365,2.365,0,0,0-4.013,0,22.122,22.122,0,0,0,0,23.412,2.365,2.365,0,0,0,4.013,0,22.122,22.122,0,0,0,0-23.412ZM351.574,232.8a17.409,17.409,0,0,1,0-9.266,17.408,17.408,0,0,1,0,9.266Z" transform="translate(-346.216 -215.344)" fill="#fff"/>
        </g>
      </g>
      <g id="Group_104" data-name="Group 104" transform="translate(50.014 168.738)">
        <g id="Group_103" data-name="Group 103">
          <path id="Path_39" data-name="Path 39" d="M185.77,222.59a25.177,25.177,0,0,1,0-29.664,2.365,2.365,0,0,0-.549-3.328,22.228,22.228,0,0,0-25.6,0,2.365,2.365,0,0,0-.549,3.328,25.176,25.176,0,0,1,0,29.663,2.364,2.364,0,0,0,.549,3.328,22.227,22.227,0,0,0,25.6,0,2.365,2.365,0,0,0,.549-3.328Zm-13.35,2.655a17.4,17.4,0,0,1-8.112-1.992,29.928,29.928,0,0,0,0-30.989,17.512,17.512,0,0,1,16.222,0,29.928,29.928,0,0,0,0,30.99A17.4,17.4,0,0,1,172.421,225.245Z" transform="translate(-158.615 -185.542)" fill="#fff"/>
        </g>
      </g>
      <g id="Group_106" data-name="Group 106" transform="translate(7.757 168.739)">
        <g id="Group_105" data-name="Group 105">
          <path id="Path_40" data-name="Path 40" d="M60.209,222.591a24.992,24.992,0,0,1-4.833-14.832,2.365,2.365,0,1,0-4.73,0,29.671,29.671,0,0,0,4.324,15.5,17.487,17.487,0,1,1,0-30.989,29.837,29.837,0,0,0-2.27,4.586,2.365,2.365,0,1,0,4.4,1.727,25.174,25.174,0,0,1,3.1-5.65,2.365,2.365,0,0,0-.549-3.328,22.216,22.216,0,1,0,0,36.32,2.365,2.365,0,0,0,.549-3.328Z" transform="translate(-24.6 -185.543)" fill="#fff"/>
        </g>
      </g>
      <g id="Group_108" data-name="Group 108" transform="translate(83.817 168.739)">
        <g id="Group_107" data-name="Group 107" transform="translate(0 0)">
          <path id="Path_41" data-name="Path 41" d="M292.975,222.592a25.177,25.177,0,0,1,0-29.664,2.365,2.365,0,0,0-.549-3.328,22.228,22.228,0,0,0-25.6,0,2.365,2.365,0,0,0-.549,3.328,25.176,25.176,0,0,1,0,29.663,2.365,2.365,0,0,0,.549,3.328,22.227,22.227,0,0,0,25.6,0,2.365,2.365,0,0,0,.549-3.328Zm-13.35,2.655a17.4,17.4,0,0,1-8.112-1.992,29.928,29.928,0,0,0,0-30.989,17.512,17.512,0,0,1,16.222,0,29.928,29.928,0,0,0,0,30.99A17.4,17.4,0,0,1,279.626,225.247Z" transform="translate(-265.82 -185.544)" fill="#fff"/>
        </g>
      </g>
      <g id="Group_110" data-name="Group 110" transform="translate(98.603 168.194)">
        <g id="Group_109" data-name="Group 109">
          <path id="Path_42" data-name="Path 42" d="M365.745,184.43a2.365,2.365,0,1,0-3.182,3.5,25.252,25.252,0,0,1-32.486,38.611,2.366,2.366,0,0,0-2.89,0,25.232,25.232,0,0,1-12.395,5.079,2.365,2.365,0,0,0,.565,4.7,29.954,29.954,0,0,0,13.273-4.982,29.976,29.976,0,0,0,37.115-46.9Z" transform="translate(-312.71 -183.814)" fill="#fff"/>
        </g>
      </g>
      <g id="Group_112" data-name="Group 112" transform="translate(41.561 178.136)">
        <g id="Group_111" data-name="Group 111">
          <path id="Path_43" data-name="Path 43" d="M139.17,216.458a2.365,2.365,0,0,0-4.013,0,22.122,22.122,0,0,0,0,23.412,2.365,2.365,0,0,0,4.013,0,22.122,22.122,0,0,0,0-23.412ZM137.164,232.8a17.409,17.409,0,0,1,0-9.266,17.409,17.409,0,0,1,0,9.266Z" transform="translate(-131.806 -215.344)" fill="#fff"/>
        </g>
      </g>
      <g id="Group_114" data-name="Group 114" transform="translate(75.364 178.136)">
        <g id="Group_113" data-name="Group 113">
          <path id="Path_44" data-name="Path 44" d="M246.375,216.458a2.365,2.365,0,0,0-4.013,0,22.122,22.122,0,0,0,0,23.412,2.365,2.365,0,0,0,4.013,0,22.122,22.122,0,0,0,0-23.412ZM244.369,232.8a17.409,17.409,0,0,1,0-9.266,17.408,17.408,0,0,1,0,9.266Z" transform="translate(-239.011 -215.344)" fill="#fff"/>
        </g>
      </g>
    </g>
    <text id="P_A_R_T_N_E_R_S_H_I_P" data-name="P A R T N E R S H I P" transform="translate(293.938 67)" fill="#fff" font-size="64" font-family="Poppins-Regular, Poppins"><tspan x="-276.928" y="0">P A R T N E R S H I P</tspan></text>
    <g id="Component_9_3" data-name="Component 9 – 3" transform="translate(224.438 664.354)">
      <line id="Line_29" data-name="Line 29" x1="70" y2="111.566" transform="translate(70)" fill="none" stroke="#fff" stroke-width="5" stroke-dasharray="9"/>
      <line id="Line_30" data-name="Line 30" x1="70" y1="111.566" transform="translate(70 111.566) rotate(180)" fill="none" stroke="#fff" stroke-width="5" stroke-dasharray="9"/>
    </g>
  </g>
</svg>
