<svg xmlns="http://www.w3.org/2000/svg" width="512" height="416.539" viewBox="0 0 512 416.539">
  <g id="photo" transform="translate(0 -0.5)">
    <path id="Path_74" data-name="Path 74" d="M469.488,84.418H465.1A47.44,47.44,0,0,0,422.656,42.8,47.431,47.431,0,0,0,375.57.5H73.352A73.435,73.435,0,0,0,0,73.848v211.9a47.429,47.429,0,0,0,42.773,47.145,47.422,47.422,0,0,0,46.313,42.273,42.448,42.448,0,0,0,42.492,41.871h337.91A42.559,42.559,0,0,0,512,374.531V126.93A42.559,42.559,0,0,0,469.488,84.418ZM492,126.93V290.668l-43.5-32.859a33.382,33.382,0,0,0-40-.348l-55.027,40.094L248.535,189.367a33.52,33.52,0,0,0-46.3-1.8l-93.16,82.191V126.93a22.535,22.535,0,0,1,22.508-22.512h337.91A22.536,22.536,0,0,1,492,126.93Zm0,247.6a22.535,22.535,0,0,1-22.508,22.512H131.578a22.509,22.509,0,0,1-22.508-22.508V296.426l106.395-93.863a13.545,13.545,0,0,1,18.715.727l47.359,48.828s0,0,0,0L375.8,349.3a10,10,0,1,0,14.355-13.922l-22.625-23.328,52.742-38.426a13.489,13.489,0,0,1,16.168.137L492,315.73ZM62.5,327.82V91.711a28.815,28.815,0,0,1,.152-2.977A29.179,29.179,0,0,1,91.641,62.57h122.32a10,10,0,0,0,0-20H91.641A49.194,49.194,0,0,0,42.5,91.711V312.688A27.411,27.411,0,0,1,20,285.75V73.848A53.411,53.411,0,0,1,73.352,20.5H375.57a27.405,27.405,0,0,1,26.844,22.07H293.961a10,10,0,0,0,0,20H418.07a27.409,27.409,0,0,1,26.8,21.848H131.578A42.559,42.559,0,0,0,89.07,126.93V355.168A27.39,27.39,0,0,1,62.5,327.82Zm0,0" fill="#fff"/>
    <path id="Path_75" data-name="Path 75" d="M388.516,145.117a42.795,42.795,0,1,0,42.793,42.793A42.843,42.843,0,0,0,388.516,145.117Zm0,65.59a22.795,22.795,0,1,1,22.793-22.793A22.822,22.822,0,0,1,388.516,210.707Zm0,0" fill="#fff"/>
    <path id="Path_76" data-name="Path 76" d="M244.73,56.4a10.259,10.259,0,0,0,.918,1.723,9.9,9.9,0,0,0,1.242,1.52,10.477,10.477,0,0,0,1.52,1.25,10.182,10.182,0,0,0,1.73.918,10.02,10.02,0,0,0,5.781.57,10.122,10.122,0,0,0,3.59-1.488,10.691,10.691,0,0,0,1.52-1.25,9.95,9.95,0,0,0,1.25-1.52A10.259,10.259,0,0,0,263.2,56.4a10.478,10.478,0,0,0,.57-1.867,10.139,10.139,0,0,0,.191-1.961,10.109,10.109,0,0,0-1.68-5.551,9.765,9.765,0,0,0-1.25-1.52,9.9,9.9,0,0,0-1.52-1.242,10.122,10.122,0,0,0-3.59-1.488,9.835,9.835,0,0,0-3.91,0,9.96,9.96,0,0,0-1.871.57,10.182,10.182,0,0,0-1.73.918,9.821,9.821,0,0,0-2.762,2.762,10.144,10.144,0,0,0-1.687,5.551,10.152,10.152,0,0,0,.2,1.961A10.478,10.478,0,0,0,244.73,56.4Zm0,0" fill="#fff"/>
  </g>
</svg>
