<svg xmlns="http://www.w3.org/2000/svg" width="128.11" height="128" viewBox="0 0 128.11 128">
  <g id="brake" transform="translate(0 -0.219)">
    <g id="Group_116" data-name="Group 116" transform="translate(61.328 0.219)">
      <g id="Group_115" data-name="Group 115" transform="translate(0 0)">
        <path id="Path_60" data-name="Path 60" d="M313.793,62.956c-3.967-34.3-27.125-57.547-62.5-62.7a3.783,3.783,0,0,0-4.263,3.791V29.515a41.674,41.674,0,0,1,37.586,37.636h25.365A3.824,3.824,0,0,0,313.793,62.956Z" transform="translate(-247.035 -0.219)" fill="#5a5a5a"/>
      </g>
    </g>
    <g id="Group_118" data-name="Group 118" transform="translate(37.377 52.995)">
      <g id="Group_117" data-name="Group 117">
        <path id="Path_61" data-name="Path 61" d="M187.069,225.98a18.926,18.926,0,1,0-23.036,23.036A18.833,18.833,0,0,0,187.069,225.98Zm-18.331,16.046a11.342,11.342,0,1,1,11.342-11.342A11.354,11.354,0,0,1,168.738,242.026Z" transform="translate(-149.834 -211.781)" fill="#5a5a5a"/>
      </g>
    </g>
    <g id="Group_120" data-name="Group 120" transform="translate(52.48 68.137)">
      <g id="Group_119" data-name="Group 119">
        <path id="Path_62" data-name="Path 62" d="M213.616,271.78a3.781,3.781,0,1,0,3.781,3.781A3.783,3.783,0,0,0,213.616,271.78Z" transform="translate(-209.835 -271.78)" fill="#5a5a5a"/>
      </g>
    </g>
    <g id="Group_122" data-name="Group 122" transform="translate(0 15.927)">
      <g id="Group_121" data-name="Group 121" transform="translate(0)">
        <path id="Path_63" data-name="Path 63" d="M93.653,122.341a3.745,3.745,0,0,1-3.669-3.865A33.792,33.792,0,0,0,56.356,84.847a3.744,3.744,0,0,1-3.865-3.668V62.54A56.26,56.26,0,0,0,.032,120.514c.974,29.036,25.251,53.313,54.286,54.287a56.26,56.26,0,0,0,57.973-52.459ZM27.077,89.428a3.749,3.749,0,1,1,0,5.3A3.749,3.749,0,0,1,27.077,89.428Zm-8.33,32.913a3.749,3.749,0,1,1,3.749-3.749A3.749,3.749,0,0,1,18.747,122.341Zm13.633,25.414a3.75,3.75,0,1,1,0-5.3A3.749,3.749,0,0,1,32.379,147.755Zm23.861,12.08a3.749,3.749,0,1,1,3.749-3.749A3.749,3.749,0,0,1,56.241,159.835Zm5.143-15.49a26.262,26.262,0,1,1,20.61-20.61A26.3,26.3,0,0,1,61.384,144.345Zm24.02,3.41a3.75,3.75,0,1,1,0-5.3A3.749,3.749,0,0,1,85.4,147.755Z" transform="translate(0 -62.54)" fill="#5a5a5a"/>
      </g>
    </g>
  </g>
</svg>
