<svg id="search-2" xmlns="http://www.w3.org/2000/svg" width="128" height="128" viewBox="0 0 128 128">
  <path id="Path_58" data-name="Path 58" d="M170.38,145.19A25.19,25.19,0,1,1,145.19,120,25.19,25.19,0,0,1,170.38,145.19Zm0,0" transform="translate(-85.756 -85.756)" fill="#5a5a5a"/>
  <path id="Path_59" data-name="Path 59" d="M64,0a64,64,0,1,0,64,64A64,64,0,0,0,64,0ZM97.616,97.616a2.287,2.287,0,0,1-3.232,0L78.735,81.97a29.8,29.8,0,1,1,3.234-3.234L97.616,94.384A2.287,2.287,0,0,1,97.616,97.616Zm0,0" fill="#5a5a5a"/>
</svg>
