<svg xmlns="http://www.w3.org/2000/svg" width="83.339" height="64" viewBox="0 0 83.339 64">
  <g id="youtube" transform="translate(1 -58.307)">
    <g id="Group_124" data-name="Group 124" transform="translate(-1 58.307)">
      <g id="Group_123" data-name="Group 123" transform="translate(0 0)">
        <path id="Path_67" data-name="Path 67" d="M81.5,72.637c0-.278-.835-6.4-3.478-9.322a12.107,12.107,0,0,0-8.487-4.035h-.556c-11.27-.835-28.1-.974-28.383-.974-.139,0-17.113.139-28.244,1.252h-.417a11.671,11.671,0,0,0-8.487,4.035C.67,66.516-.165,72.776-.165,73.055A139.2,139.2,0,0,0-1,87.246v6.539c0,6.957.835,14.052.835,14.191,0,.278.835,6.4,3.478,9.322,2.922,3.339,6.4,3.757,8.626,4.035a3.065,3.065,0,0,1,1.113.139c6.4.556,26.713.835,27.548.835.139,0,17.113,0,28.383-1.252H69.4a11.671,11.671,0,0,0,8.487-4.035c2.783-2.922,3.617-9.183,3.617-9.461a139.2,139.2,0,0,0,.835-14.191V86.829C82.339,79.872,81.5,72.776,81.5,72.637ZM79.557,93.646a133.826,133.826,0,0,1-.835,13.913c-.278,1.53-1.113,5.983-2.922,7.93a9.11,9.11,0,0,1-6.678,3.2H68.7c-11.131.835-27.965.835-28.1.835s-21.009-.278-27.13-.974c-.417,0-.835-.139-1.252-.139a9.641,9.641,0,0,1-6.957-3.061c-1.67-1.809-2.643-6.261-2.783-7.791,0-.139-.835-7.1-.835-13.913V87.107a133.825,133.825,0,0,1,.835-13.913c.139-1.53,1.113-5.983,2.783-7.93a9.359,9.359,0,0,1,6.817-3.2H12.5c11.13-.835,27.965-.974,28.1-.974s16.974.139,28.1.974h.556a9.109,9.109,0,0,1,6.678,3.2c1.67,1.948,2.5,6.4,2.783,7.93a109.528,109.528,0,0,1,.835,13.913v6.539Z" transform="translate(1 -58.307)" fill="#fff"/>
        <path id="Path_68" data-name="Path 68" d="M214.917,175.362,188,159.639a1.286,1.286,0,0,0-1.416,0,1.488,1.488,0,0,0-.708,1.275v30.737a1.488,1.488,0,0,0,.708,1.275,1.842,1.842,0,0,0,1.417,0l26.912-15.014a1.5,1.5,0,0,0,0-2.55Zm-26.2,13.881V163.322l22.663,13.315Z" transform="translate(-155.708 -143.258)" fill="#fff"/>
      </g>
    </g>
  </g>
</svg>
